# File created by Blade
# Date/Time:  Mon Nov 18 17:26:10 2013
# Frame Rate: 100.000 fps
#------------------------------------------------------
:FULLY-SPECIFIED
:DEGREES
244
root -37.419597 -2.969920 38.625566 11.292313 -3.727096 14.809806
Spine 22.108875 -3.647488 2.469864
Spine1 8.090576 -1.272335 5.111580
Spine2 -22.446181 -1.160874 -0.184636
NeckDummy -0.081836 0.243741 0.931624 13.668512 -0.743753 0.314940
Neck 2.405106 -15.675733 39.235533
Head -0.433876 -0.016344 0.281596 -5.280766 -5.124876 -2.160825
LeftShoulderDummy -0.130587 0.265436 0.954934 13.663428 -0.920091 0.537130
LeftShoulder 3.841081 -7.815661 13.938536
LeftArm 19.039477 34.333199 21.197146
LeftForeArm 46.169810
LeftForeArmRoll 26.647463
LeftHand -33.749102 -23.194040 11.944987
LeftHandThumb1 13.130876 4.872998
LeftHandIndex1 0.141810 41.762612
LeftHandPinky1 2.407391 62.919936
RightShoulderDummy -0.069252 0.250110 0.898515 13.639789 0.728354 -0.263302
RightShoulder 5.281464 5.647666 5.837719
RightArm 9.787031 68.093817 48.929413
RightForeArm 100.852413
RightForeArmRoll 21.540810
RightHand -45.893973 -23.921336 9.720259
RightHandThumb1 13.673944 7.217563
RightHandIndex1 4.730237 32.977639
RightHandPinky1 9.696411 61.155914
LeftUpLeg -8.080838 22.788198 -47.387917
LeftLeg 48.060884
LeftFoot 0.034839 -0.665608 -1.500350 -21.014954 18.836255 -3.127768
LeftToeBase 1.341902
RightUpLeg 1.195247 18.501451 -35.250351
RightLeg 50.282435
RightFoot -0.564241 0.872720 0.818119 -22.515375 7.526909 -19.039250
RightToeBase -1.005892
245
root -37.555201 -2.973910 38.633737 11.220609 -3.630296 14.778223
Spine 22.107505 -3.597202 2.418855
Spine1 8.097222 -1.252448 5.043882
Spine2 -22.429302 -1.224500 -0.221382
NeckDummy -0.084250 0.242738 0.930905 13.670411 -0.728699 0.242890
Neck 2.360351 -15.682334 39.333987
Head -0.435376 -0.015473 0.283675 -5.278610 -5.121903 -2.167665
LeftShoulderDummy -0.133615 0.263226 0.954092 13.665871 -0.907737 0.472877
LeftShoulder 3.924399 -7.799598 14.082028
LeftArm 18.949260 34.447784 21.071532
LeftForeArm 46.302744
LeftForeArmRoll 26.490632
LeftHand -33.788865 -23.302846 12.071036
LeftHandThumb1 13.176617 4.932358
LeftHandIndex1 0.030160 41.812688
LeftHandPinky1 2.462244 62.939994
RightShoulderDummy -0.072008 0.250780 0.898070 13.641551 0.713768 -0.187269
RightShoulder 5.320668 5.565102 5.875354
RightArm 9.345680 67.903845 48.521031
RightForeArm 100.803968
RightForeArmRoll 21.300570
RightHand -45.820077 -23.817373 9.862304
RightHandThumb1 13.414877 7.207205
RightHandIndex1 4.851319 33.201471
RightHandPinky1 9.746202 61.074324
LeftUpLeg -8.248752 22.829831 -47.174161
LeftLeg 47.754811
LeftFoot 0.033326 -0.667944 -1.490528 -21.216711 19.011216 -2.901342
LeftToeBase 1.350689
RightUpLeg 1.069950 18.353556 -35.440837
RightLeg 50.649870
RightFoot -0.565734 0.876774 0.825246 -22.438067 7.596476 -19.148562
RightToeBase -1.034564
246
root -37.691762 -2.977439 38.642171 11.121573 -3.540879 14.772309
Spine 22.136323 -3.549790 2.377890
Spine1 8.109450 -1.211467 4.949232
Spine2 -22.427188 -1.245634 -0.243025
NeckDummy -0.084604 0.241997 0.929523 13.680209 -0.712372 0.208691
Neck 2.373071 -15.703819 39.423096
Head -0.438940 -0.016770 0.282073 -5.267778 -5.170734 -2.168503
LeftShoulderDummy -0.133542 0.261510 0.952574 13.675399 -0.889100 0.424468
LeftShoulder 4.023778 -7.860466 14.187868
LeftArm 18.992304 34.568031 20.936805
LeftForeArm 46.405869
LeftForeArmRoll 25.823161
LeftHand -33.505598 -23.169692 12.183743
LeftHandThumb1 13.547704 4.234135
LeftHandIndex1 -0.092327 41.971332
LeftHandPinky1 2.127942 63.142752
RightShoulderDummy -0.072878 0.251060 0.897022 13.650448 0.697986 -0.147837
RightShoulder 5.349921 5.558974 5.929483
RightArm 8.959262 67.702808 48.132666
RightForeArm 100.802837
RightForeArmRoll 21.344551
RightHand -45.727287 -23.749185 9.991033
RightHandThumb1 13.495186 7.215673
RightHandIndex1 4.750617 33.470809
RightHandPinky1 9.656821 61.226605
LeftUpLeg -8.411531 22.883279 -46.919747
LeftLeg 47.409630
LeftFoot 0.031313 -0.664873 -1.479649 -21.425050 19.162522 -2.650616
LeftToeBase 1.353407
RightUpLeg 1.032964 18.226731 -35.572362
RightLeg 50.992022
RightFoot -0.566466 0.879553 0.831416 -22.341678 7.649599 -19.286653
RightToeBase -0.989815
247
root -37.828021 -2.980346 38.650219 11.031062 -3.440734 14.794931
Spine 22.152863 -3.440531 2.291995
Spine1 8.109813 -1.171592 4.806550
Spine2 -22.400278 -1.340785 -0.279751
NeckDummy -0.088155 0.244751 0.928636 13.686552 -0.693384 0.225022
Neck 2.440521 -15.778407 39.548702
Head -0.438643 -0.018382 0.284053 -5.276473 -5.166144 -2.170792
LeftShoulderDummy -0.136587 0.264676 0.951379 13.681065 -0.867648 0.429982
LeftShoulder 4.161981 -7.942505 14.302238
LeftArm 18.881861 34.710779 20.733852
LeftForeArm 46.599709
LeftForeArmRoll 26.005794
LeftHand -33.746424 -23.210720 12.125216
LeftHandThumb1 13.409118 4.273615
LeftHandIndex1 0.241050 41.586343
LeftHandPinky1 2.346794 62.684884
RightShoulderDummy -0.076174 0.253621 0.896495 13.656799 0.677878 -0.161812
RightShoulder 5.361273 5.591160 5.958666
RightArm 8.567040 67.508911 47.753196
RightForeArm 100.783683
RightForeArmRoll 21.214439
RightHand -45.614224 -23.540226 9.959497
RightHandThumb1 13.247209 7.051862
RightHandIndex1 4.898600 33.421726
RightHandPinky1 9.698400 60.969719
LeftUpLeg -8.593149 22.903805 -46.678154
LeftLeg 47.079804
LeftFoot 0.033420 -0.666299 -1.463099 -21.656647 19.309352 -2.431842
LeftToeBase 1.339599
RightUpLeg 1.034399 18.129612 -35.668647
RightLeg 51.284543
RightFoot -0.565496 0.878626 0.837351 -22.259389 7.689900 -19.422491
RightToeBase -0.983595
248
root -37.965616 -2.981619 38.657899 10.949086 -3.333509 14.835787
Spine 22.173885 -3.361935 2.226107
Spine1 8.106163 -1.132772 4.663697
Spine2 -22.389430 -1.404834 -0.307745
NeckDummy -0.091632 0.247218 0.928139 13.668864 -0.677416 0.180567
Neck 2.463599 -15.735793 39.628836
Head -0.439817 -0.020356 0.282040 -5.234315 -5.204985 -2.158410
LeftShoulderDummy -0.140140 0.266651 0.950681 13.663886 -0.853223 0.399686
LeftShoulder 4.287547 -8.004849 14.406747
LeftArm 18.832160 34.829515 20.578476
LeftForeArm 46.705751
LeftForeArmRoll 25.682642
LeftHand -33.671750 -23.158349 12.150575
LeftHandThumb1 13.151756 4.718395
LeftHandIndex1 0.175143 41.543301
LeftHandPinky1 2.287740 62.485666
RightShoulderDummy -0.079689 0.256900 0.896204 13.639113 0.662677 -0.120071
RightShoulder 5.442883 5.525996 6.017615
RightArm 8.196017 67.249868 47.385303
RightForeArm 100.767713
RightForeArmRoll 21.190267
RightHand -45.559322 -23.358371 9.956976
RightHandThumb1 13.157227 7.068571
RightHandIndex1 4.923791 33.354201
RightHandPinky1 9.718051 60.904154
LeftUpLeg -8.760454 22.932286 -46.439488
LeftLeg 46.692635
LeftFoot 0.031695 -0.667154 -1.456566 -21.899234 19.421335 -2.173905
LeftToeBase 1.337404
RightUpLeg 1.088767 18.057471 -35.738291
RightLeg 51.528577
RightFoot -0.566136 0.872860 0.845871 -22.173477 7.668625 -19.537524
RightToeBase -1.015949
249
root -38.101620 -2.982754 38.666253 10.853021 -3.239069 14.893995
Spine 22.210787 -3.277708 2.148018
Spine1 8.110022 -1.086367 4.516281
Spine2 -22.385892 -1.436197 -0.338027
NeckDummy -0.091902 0.248460 0.929092 13.677903 -0.654259 0.131343
Neck 2.483691 -15.758958 39.744568
Head -0.439872 -0.021638 0.280724 -5.223259 -5.165617 -2.187171
LeftShoulderDummy -0.140450 0.266940 0.951488 13.673754 -0.830733 0.347858
LeftShoulder 4.337918 -8.022223 14.551744
LeftArm 18.781743 35.046683 20.474146
LeftForeArm 46.783698
LeftForeArmRoll 25.237015
LeftHand -33.527363 -23.148886 12.292671
LeftHandThumb1 13.313295 4.638505
LeftHandIndex1 -0.183773 41.503405
LeftHandPinky1 2.004734 62.663100
RightShoulderDummy -0.080792 0.259207 0.897673 13.648194 0.641394 -0.074007
RightShoulder 5.463729 5.482027 6.084734
RightArm 7.708832 66.993237 46.906810
RightForeArm 100.784236
RightForeArmRoll 21.207055
RightHand -45.544242 -23.011307 9.834457
RightHandThumb1 12.631795 6.645513
RightHandIndex1 4.784899 33.092506
RightHandPinky1 9.603799 60.319999
LeftUpLeg -8.946153 22.952979 -46.200652
LeftLeg 46.346430
LeftFoot 0.036528 -0.673051 -1.442127 -22.123423 19.525500 -1.977049
LeftToeBase 1.320977
RightUpLeg 1.152200 17.982419 -35.758998
RightLeg 51.746998
RightFoot -0.573734 0.858283 0.839422 -22.467892 7.821645 -19.706439
RightToeBase -0.692376
250
root -38.231748 -2.982753 38.668198 10.773071 -3.103297 15.007320
Spine 22.256255 -3.167876 2.050004
Spine1 8.111157 -1.039453 4.337023
Spine2 -22.394317 -1.491778 -0.376603
NeckDummy -0.094107 0.251259 0.930932 13.653037 -0.635412 0.113015
Neck 2.546355 -15.774939 39.818482
Head -0.440232 -0.023753 0.277844 -5.196390 -5.147420 -2.220154
LeftShoulderDummy -0.142884 0.269463 0.953198 13.648834 -0.812321 0.328055
LeftShoulder 4.482146 -8.076209 14.673064
LeftArm 18.601970 35.224784 20.322400
LeftForeArm 46.889866
LeftForeArmRoll 25.354123
LeftHand -33.807861 -23.193552 12.254645
LeftHandThumb1 13.059067 4.710362
LeftHandIndex1 0.251897 41.281647
LeftHandPinky1 2.422581 62.249702
RightShoulderDummy -0.083291 0.262401 0.899635 13.623070 0.624409 -0.057469
RightShoulder 5.555217 5.487041 6.178405
RightArm 7.425275 66.727614 46.610044
RightForeArm 100.785457
RightForeArmRoll 21.186752
RightHand -45.440231 -22.960746 9.799127
RightHandThumb1 12.895403 6.783987
RightHandIndex1 4.897517 33.294093
RightHandPinky1 9.487121 60.356670
LeftUpLeg -9.157609 22.902672 -45.975721
LeftLeg 45.971642
LeftFoot 0.033992 -0.675770 -1.426564 -22.377314 19.659494 -1.746647
LeftToeBase 1.323663
RightUpLeg 1.306608 18.008570 -35.783899
RightLeg 51.960423
RightFoot -0.563956 0.864631 0.853327 -22.103811 7.637363 -19.848790
RightToeBase -0.992521
